<?xml version="1.0" encoding="utf-8"?>
<!-- Generator: Adobe Illustrator 16.0.0, SVG Export Plug-In . SVG Version: 6.00 Build 0)  -->
<!DOCTYPE svg PUBLIC "-//W3C//DTD SVG 1.1//EN" "http://www.w3.org/Graphics/SVG/1.1/DTD/svg11.dtd">
<svg version="1.1" id="Layer_1" xmlns="http://www.w3.org/2000/svg" xmlns:xlink="http://www.w3.org/1999/xlink" x="0px" y="0px"
	 width="612px" height="106.665px" viewBox="0 0 612 106.665" enable-background="new 0 0 612 106.665" xml:space="preserve">
<g>
	<g>
		<path fill="#231F20" d="M99.269,81.804h-1.768c-1.58-2.507-3.914-6.205-3.914-11.417c0-5.211,2.334-8.91,3.914-11.417h1.768
			c-2.381,4.295-3.3,7.942-3.3,11.417S96.888,77.51,99.269,81.804z"/>
		<path fill="#231F20" d="M112.046,73.836v7.596h-2.355v-7.596h-9.193v-2.061h20.743v2.061H112.046z M119.966,68.204l-1.578,1.762
			c-2.875-0.695-6.246-2.73-7.52-4.791c-1.271,1.961-3.959,3.922-7.52,4.791l-1.579-1.762c5.517-1.242,7.544-4.344,7.851-5.685
			h-6.672v-2.085h15.84v2.085h-6.67C112.424,63.859,114.357,66.813,119.966,68.204z"/>
		<path fill="#231F20" d="M125.633,70.385c0-3.475-0.92-7.122-3.3-11.416h1.768c1.579,2.508,3.912,6.205,3.912,11.416
			c0,5.214-2.333,8.912-3.912,11.418h-1.768C124.713,77.51,125.633,73.861,125.633,70.385z"/>
		<path fill="#231F20" d="M139.591,77.361c-3.418,0-5.634-3.177-5.634-8.067c0-4.938,2.216-8.065,5.634-8.065
			c3.465,0,5.634,3.151,5.634,8.065C145.225,74.159,143.056,77.361,139.591,77.361z M139.615,63.413
			c-2.099,0-3.324,2.754-3.324,5.857c0,3.176,1.226,5.881,3.324,5.881c2.121,0,3.277-2.705,3.277-5.881
			C142.892,66.143,141.736,63.413,139.615,63.413z M151.189,59.59v9.01h3.111v2.209h-3.111v10.623h-2.357V59.59H151.189z"/>
		<path fill="#231F20" d="M161.947,77.361c-3.419,0-5.658-3.177-5.658-8.067c0-4.938,2.239-8.065,5.658-8.065
			c3.441,0,5.609,3.151,5.609,8.065C167.556,74.159,165.388,77.361,161.947,77.361z M161.97,63.413
			c-2.099,0-3.348,2.754-3.348,5.857c0,3.176,1.249,5.881,3.348,5.881c2.098,0,3.275-2.705,3.275-5.881
			C165.246,66.143,164.068,63.413,161.97,63.413z M171.682,81.432V59.59h2.356v21.841L171.682,81.432L171.682,81.432z"/>
		<path fill="#231F20" d="M183.641,76.442l-4.927,0.051v-14.42h10.137v2.108h-7.78v10.176l3.513-0.024
			c2.097-0.049,5.398-0.422,6.01-0.547v2.062C189.982,75.946,186.871,76.418,183.641,76.442z M193.14,81.432V69.741h-5.681v-2.084
			h5.681V59.59h2.356v21.841L193.14,81.432L193.14,81.432z"/>
		<path fill="#231F20" d="M198.593,78.206V76.12h20.744v2.086H198.593z M201.328,73.018l-1.648-1.813
			c7.094-2.531,8.036-6.824,8.036-8.885v-1.514h2.5v1.514c0,2.061,1.202,6.453,8.038,8.885l-1.65,1.813
			c-3.182-0.969-6.601-4.17-7.639-6.578C208.046,69.122,204.417,72.049,201.328,73.018z"/>
		<path fill="#231F20" d="M226.89,78.502v-2.084h7.425V71.28h2.407v5.139h10.914v2.084H226.89z M243.675,74.084h-2.357
			c0.023-0.125,0.565-2.482,0.895-5.188c-1.342,0.199-3.182,0.323-4.833,0.397c-2.591,0.148-8.012,0.1-8.295,0.1v-2.085
			c0.305,0,6.223,0.05,8.367-0.074c1.744-0.099,3.771-0.248,5.045-0.446c0.165-1.488,0.211-1.986,0.259-2.953H229.39v-2.086h15.937
			C245.326,64.529,244.499,70.958,243.675,74.084z"/>
		<path fill="#231F20" d="M256.6,77.063l-5.964,0.049v-8.859h7.802V63.81h-7.802V61.7h10.136v8.637h-7.777v4.666l4.337-0.023
			c2.074-0.05,5.044-0.322,6.388-0.57v2.059C262.305,76.691,259.216,77.014,256.6,77.063z M265.063,81.432V59.59h2.354v21.841
			L265.063,81.432L265.063,81.432z"/>
		<path fill="#231F20" d="M276.952,77.361c-3.42,0-5.634-3.177-5.634-8.067c0-4.938,2.214-8.065,5.634-8.065
			c3.466,0,5.633,3.151,5.633,8.065C282.584,74.159,280.417,77.361,276.952,77.361z M276.974,63.413
			c-2.098,0-3.323,2.754-3.323,5.857c0,3.176,1.226,5.881,3.323,5.881c2.123,0,3.277-2.705,3.277-5.881
			C280.251,66.143,279.097,63.413,276.974,63.413z M288.549,59.59v9.01h3.111v2.209h-3.111v10.623h-2.355V59.59H288.549z"/>
	</g>
	<g>
		<path fill="#231F20" d="M104.798,43.981v0.626H93.037v-0.626h0.746c0.654,0,1.18-0.118,1.577-0.354
			c0.286-0.157,0.509-0.428,0.663-0.811c0.122-0.271,0.183-0.981,0.183-2.13V25.611c0-1.172-0.061-1.904-0.183-2.197
			s-0.367-0.55-0.738-0.77c-0.371-0.219-0.871-0.329-1.502-0.329h-0.746V21.69h11.762v0.625h-0.746
			c-0.652,0-1.178,0.118-1.576,0.355c-0.287,0.157-0.514,0.428-0.68,0.811c-0.122,0.271-0.184,0.98-0.184,2.129v15.075
			c0,1.172,0.063,1.905,0.191,2.197c0.128,0.293,0.375,0.55,0.746,0.77c0.371,0.22,0.871,0.329,1.502,0.329H104.798z"/>
		<path fill="#231F20" d="M119.976,44.607c-1.449,0-2.51-0.068-3.186-0.203c-1.527-0.293-2.816-0.707-3.873-1.242
			c-1.056-0.535-1.988-1.245-2.795-2.13c-0.809-0.884-1.466-2.005-1.975-3.363c-0.509-1.357-0.764-2.841-0.764-4.453
			c0-2.332,0.518-4.422,1.552-6.27c1.034-1.848,2.552-3.229,4.554-4.141c1.637-0.744,3.798-1.116,6.486-1.116h10.069v0.625h-0.746
			c-0.632,0-1.132,0.11-1.502,0.329c-0.37,0.22-0.616,0.477-0.738,0.77s-0.183,1.025-0.183,2.197v15.075
			c0,1.183,0.05,1.893,0.149,2.13c0.166,0.359,0.423,0.645,0.771,0.853c0.349,0.209,0.849,0.313,1.502,0.313h0.746v0.626H119.976z
			 M117.503,23.499c-1.128,0.496-2.051,1.431-2.77,2.806c-0.907,1.757-1.36,4.106-1.36,7.047c0,3.651,0.663,6.343,1.989,8.079
			c0.975,1.285,2.385,1.926,4.231,1.926c0.563,0,0.996-0.084,1.294-0.253c0.21-0.113,0.358-0.276,0.448-0.491
			c0.089-0.214,0.133-0.794,0.133-1.74v-17.88C119.622,22.98,118.299,23.149,117.503,23.499z"/>
		<path fill="#231F20" d="M132.558,21.69h11.613v0.625h-0.581c-0.874,0-1.474,0.093-1.799,0.279
			c-0.326,0.187-0.56,0.443-0.697,0.769c-0.139,0.327-0.207,1.144-0.207,2.45v11.222c0,2.051,0.151,3.409,0.456,4.073
			c0.305,0.666,0.805,1.217,1.501,1.656c0.696,0.439,1.575,0.659,2.638,0.659c1.217,0,2.254-0.278,3.111-0.836
			c0.855-0.558,1.497-1.327,1.924-2.306c0.426-0.981,0.639-2.688,0.639-5.121v-9.347c0-1.024-0.105-1.757-0.314-2.196
			c-0.211-0.44-0.476-0.744-0.797-0.913c-0.498-0.259-1.2-0.389-2.107-0.389V21.69h7.779v0.625h-0.463
			c-0.631,0-1.155,0.129-1.576,0.389c-0.421,0.26-0.724,0.648-0.913,1.166c-0.144,0.361-0.215,1.009-0.215,1.943v8.704
			c0,2.693-0.175,4.637-0.523,5.83c-0.348,1.195-1.196,2.293-2.546,3.296s-3.19,1.504-5.523,1.504c-1.947,0-3.451-0.265-4.514-0.794
			c-1.448-0.722-2.471-1.646-3.068-2.771c-0.598-1.127-0.896-2.642-0.896-4.547V25.813c0-1.317-0.07-2.137-0.215-2.459
			c-0.144-0.32-0.393-0.577-0.746-0.769c-0.354-0.191-1.006-0.281-1.959-0.27V21.69H132.558z"/>
		<path fill="#231F20" d="M171.286,21.166l0.183,7.64h-0.68c-0.321-1.916-1.109-3.457-2.365-4.622
			c-1.255-1.167-2.612-1.75-4.073-1.75c-1.127,0-2.021,0.308-2.679,0.921c-0.658,0.615-0.986,1.321-0.986,2.122
			c0,0.507,0.115,0.958,0.348,1.352c0.321,0.529,0.834,1.054,1.543,1.572c0.52,0.372,1.72,1.031,3.6,1.978
			c2.633,1.318,4.407,2.563,5.325,3.735c0.906,1.172,1.36,2.512,1.36,4.021c0,1.916-0.732,3.563-2.198,4.943
			c-1.465,1.381-3.326,2.07-5.582,2.07c-0.708,0-1.377-0.073-2.007-0.219c-0.631-0.147-1.422-0.423-2.373-0.828
			c-0.53-0.226-0.967-0.339-1.311-0.339c-0.287,0-0.592,0.113-0.912,0.339c-0.32,0.225-0.58,0.568-0.779,1.03h-0.614v-8.653h0.614
			c0.486,2.434,1.425,4.29,2.813,5.569c1.387,1.278,2.884,1.918,4.487,1.918c1.238,0,2.226-0.344,2.961-1.031
			c0.734-0.687,1.104-1.487,1.104-2.4c0-0.54-0.142-1.064-0.424-1.571c-0.282-0.507-0.711-0.988-1.286-1.444
			c-0.574-0.457-1.592-1.051-3.051-1.783c-2.047-1.025-3.519-1.898-4.414-2.62c-0.896-0.721-1.584-1.527-2.065-2.417
			c-0.481-0.89-0.721-1.871-0.721-2.941c0-1.825,0.657-3.38,1.974-4.665c1.316-1.284,2.975-1.927,4.978-1.927
			c0.729,0,1.437,0.091,2.122,0.27c0.521,0.136,1.153,0.387,1.899,0.753c0.746,0.366,1.27,0.549,1.567,0.549
			c0.288,0,0.515-0.09,0.681-0.27c0.165-0.181,0.321-0.614,0.466-1.302H171.286z"/>
		<path fill="#231F20" d="M193.627,31.935l8.054,8.155c1.319,1.346,2.449,2.262,3.383,2.749c0.933,0.486,1.868,0.763,2.802,0.829
			v0.606h-10.39v-0.606c0.623,0,1.071-0.107,1.346-0.32c0.272-0.213,0.41-0.452,0.41-0.714c0-0.263-0.052-0.498-0.152-0.707
			c-0.103-0.208-0.438-0.596-1.007-1.165l-7.539-7.598v7.171c0,1.127,0.07,1.871,0.209,2.232c0.108,0.272,0.334,0.508,0.678,0.705
			c0.462,0.263,0.95,0.395,1.467,0.395h0.74v0.606h-9.311v-0.606h0.773c0.901,0,1.557-0.269,1.966-0.804
			c0.257-0.35,0.386-1.192,0.386-2.528V25.962c0-1.127-0.069-1.876-0.21-2.248c-0.107-0.263-0.328-0.493-0.66-0.69
			c-0.472-0.263-0.966-0.393-1.481-0.393h-0.773v-0.608h9.311v0.608h-0.74c-0.507,0-0.994,0.125-1.467,0.377
			c-0.332,0.174-0.563,0.437-0.692,0.787c-0.128,0.352-0.194,1.073-0.194,2.167v6.81c0.214-0.208,0.951-0.902,2.208-2.084
			c3.189-2.976,5.115-4.961,5.78-5.957c0.292-0.437,0.437-0.82,0.437-1.148c0-0.251-0.111-0.473-0.339-0.665
			c-0.225-0.191-0.605-0.286-1.144-0.286h-0.499v-0.608H205v0.608c-0.474,0.011-0.903,0.076-1.289,0.196
			c-0.387,0.121-0.859,0.353-1.418,0.697c-0.559,0.346-1.245,0.901-2.062,1.666c-0.236,0.219-1.325,1.34-3.269,3.365L193.627,31.935
			z"/>
		<path fill="#231F20" d="M215.754,21.515c2.692,0,5.026,1.097,6.999,3.29c1.976,2.193,2.961,4.931,2.961,8.213
			c0,3.38-0.992,6.186-2.983,8.418c-1.989,2.232-4.396,3.348-7.222,3.348c-2.855,0-5.255-1.089-7.199-3.266
			c-1.943-2.177-2.916-4.994-2.916-8.451c0-3.533,1.123-6.416,3.368-8.647C210.709,22.483,213.041,21.515,215.754,21.515z
			 M215.463,22.712c-1.856,0-3.346,0.739-4.468,2.215c-1.399,1.838-2.096,4.529-2.096,8.074c0,3.632,0.725,6.426,2.173,8.384
			c1.11,1.488,2.58,2.232,4.407,2.232c1.946,0,3.556-0.814,4.826-2.445c1.27-1.63,1.906-4.201,1.906-7.712
			c0-3.808-0.701-6.646-2.098-8.516C218.993,23.457,217.443,22.712,215.463,22.712z"/>
		<path fill="#231F20" d="M249.894,44.274h-6.414l-8.132-10.403c-0.603,0.021-1.093,0.033-1.471,0.033
			c-0.154,0-0.318-0.003-0.495-0.009c-0.18-0.005-0.362-0.014-0.551-0.024v6.465c0,1.4,0.166,2.271,0.497,2.609
			c0.447,0.481,1.119,0.723,2.02,0.723h0.938v0.606h-10.294v-0.606h0.902c1.017,0,1.743-0.307,2.181-0.92
			c0.247-0.339,0.372-1.143,0.372-2.412V25.962c0-1.401-0.166-2.271-0.498-2.609c-0.459-0.481-1.144-0.722-2.055-0.722h-0.902
			v-0.608h8.753c2.551,0,4.432,0.173,5.642,0.517c1.212,0.345,2.237,0.98,3.084,1.904c0.846,0.925,1.268,2.027,1.268,3.307
			c0,1.368-0.484,2.555-1.445,3.561c-0.964,1.007-2.455,1.718-4.472,2.134l4.959,6.383c1.133,1.467,2.108,2.439,2.923,2.921
			s1.88,0.788,3.19,0.92V44.274L249.894,44.274z M232.832,32.837c0.224,0,0.42,0.003,0.584,0.008
			c0.165,0.005,0.302,0.008,0.409,0.008c2.291,0,4.02-0.459,5.182-1.377c1.162-0.92,1.745-2.09,1.745-3.512
			c0-1.39-0.47-2.52-1.41-3.389c-0.939-0.87-2.181-1.305-3.728-1.305c-0.688,0-1.614,0.104-2.782,0.312V32.837z"/>
		<path fill="#231F20" d="M256.086,23.237v8.795h5.042c1.307,0,2.18-0.19,2.621-0.573c0.585-0.503,0.912-1.39,0.98-2.658h0.625
			v7.745h-0.625c-0.158-1.083-0.316-1.778-0.474-2.084c-0.203-0.383-0.535-0.684-0.997-0.903c-0.462-0.218-1.175-0.327-2.131-0.327
			h-5.042v7.334c0,0.985,0.045,1.583,0.135,1.797c0.092,0.213,0.25,0.383,0.475,0.508c0.227,0.126,0.653,0.188,1.285,0.188h3.891
			c1.295,0,2.237-0.087,2.823-0.262c0.586-0.175,1.15-0.52,1.692-1.034c0.698-0.678,1.416-1.701,2.147-3.068h0.676l-1.978,5.579
			h-17.674v-0.606h0.813c0.54,0,1.055-0.126,1.539-0.378c0.36-0.175,0.604-0.438,0.734-0.788c0.129-0.35,0.196-1.066,0.196-2.149
			V25.896c0-1.41-0.146-2.281-0.442-2.608c-0.404-0.438-1.082-0.656-2.027-0.656h-0.813v-0.608h17.674l0.255,4.874h-0.662
			c-0.235-1.17-0.499-1.974-0.784-2.411c-0.291-0.438-0.714-0.771-1.278-1.002c-0.451-0.164-1.246-0.246-2.384-0.246h-6.292V23.237z
			"/>
		<path fill="#231F20" d="M284.406,36.824h-8.457l-1.482,3.512c-0.364,0.865-0.548,1.51-0.548,1.937
			c0,0.339,0.159,0.638,0.475,0.895c0.317,0.257,1.004,0.424,2.056,0.501v0.606h-6.876v-0.606c0.911-0.165,1.501-0.378,1.771-0.641
			c0.548-0.525,1.153-1.592,1.818-3.2l7.684-18.313h0.565l7.6,18.509c0.613,1.489,1.168,2.454,1.668,2.897
			c0.498,0.443,1.193,0.692,2.086,0.747v0.606h-8.617v-0.606c0.869-0.044,1.457-0.192,1.764-0.444
			c0.307-0.251,0.459-0.557,0.459-0.919c0-0.481-0.215-1.241-0.645-2.281L284.406,36.824z M283.953,35.61l-3.704-8.992l-3.8,8.992
			H283.953z"/>
	</g>
	<rect x="93.037" y="51.276" fill="#231F20" width="198.543" height="1.038"/>
	<path fill="#0D0D0D" d="M80.769,81.528c-3.649-0.572-6.441-3.596-6.441-7.227V28.394c0-3.632,2.794-6.656,6.445-7.228H60.554
		c-12.736,0-24.28,7.164-29.409,18.251l-1.571,3.396l0.516-3.678c1.459-10.392,7.101-15.528,11.36-17.969H13.362
		c3.651,0.571,6.445,3.595,6.445,7.228v45.907c0,3.632-2.793,6.654-6.444,7.228H41.45c-4.259-2.44-9.901-7.577-11.36-17.97
		l-0.516-3.678l1.571,3.396c5.129,11.088,16.673,18.251,29.409,18.251l0,0L80.769,81.528z M39.078,51.347
		c0-11.411,9.834-21.05,21.477-21.05h4.167v42.101h-4.167C48.913,72.398,39.078,62.758,39.078,51.347z"/>
</g>
<rect x="308.68" y="24.592" fill="#231F20" width="1.037" height="59.569"/>
<g>
	<g>
		<g>
			<path fill="#231815" d="M427.623,19.975c6.229,0,10.031,2.031,10.031,6.226c0,2.75-1.712,4.849-4.808,5.916
				c-1.605,0.551-2.872,0.651-7.794,0.688v6.605c0,2.303,0.297,2.613,3.245,2.959v0.857h-12.419v-0.857
				c0.709-0.073,1.268-0.138,1.678-0.313c1.232-0.445,1.454-1.409,1.454-3.163V24.205c0-2.684-0.519-3.161-3.132-3.369v-0.86
				H427.623z M425.053,31.602c4.66-0.034,6.188-1.205,6.188-5.021c0-3.818-1.231-5.4-4.325-5.4c-1.23,0-1.863,0.413-1.863,1.205
				V31.602z"/>
			<path fill="#231815" d="M463.74,20.835c-2.386,0.345-2.908,0.894-2.908,2.923v10.8c0,3.439-1.008,6.087-2.834,7.428
				c-1.604,1.205-4.211,1.893-6.859,1.893c-2.762,0-5.147-0.585-6.898-1.856c-2.122-1.547-2.984-3.405-2.984-6.744V24.139
				c0-2.789-0.445-3.063-3.059-3.303v-0.86h12.529v0.86c-2.906,0.208-3.539,0.653-3.539,3.473v10.938
				c0,4.78,1.824,6.947,5.444,6.947c4.364,0,6.562-2.543,6.562-7.635V24.241c0-2.512-0.855-3.197-3.617-3.406v-0.86h8.164V20.835z"
				/>
			<path fill="#231815" d="M483.034,43.226l-7.331-10.767h-0.992v6.744c0,2.51,0.354,2.82,3.115,3.166v0.857h-11.973v-0.857
				c2.765-0.313,3.118-0.552,3.118-3.271V24.272c0-2.68-0.495-3.268-3.118-3.437v-0.86h10.912c6.906,0,10.483,1.96,10.483,5.917
				c0,1.546-0.566,3.129-1.594,4.058c-0.991,0.86-1.913,1.411-3.968,1.96l7.051,9.7c0.317,0.445,0.922,0.758,1.557,0.758v0.857
				H483.034z M474.711,31.361c4.64-0.036,6.48-0.931,6.48-5.125c0-3.646-1.31-5.09-4.606-5.09c-1.377,0-1.874,0.413-1.874,1.548
				V31.361z"/>
			<path fill="#231815" d="M501.215,26.75l-4.319,10.868c-0.427,1.069-1.101,2.512-1.101,3.338c0,0.894,0.78,1.274,2.871,1.412
				v0.857h-7.156v-0.857c1.629-0.277,2.161-0.897,3.507-4.129l7.829-18.745h0.992l7.863,17.955c1.806,4.161,2.444,4.919,3.894,4.919
				v0.857h-11.403v-0.857l1.131-0.105c1.173-0.104,1.631-0.382,1.631-1.135c0-0.758-0.424-1.959-1.631-4.681L501.215,26.75z"/>
			<path fill="#231815" d="M549.641,26.75l-4.321,10.868c-0.424,1.069-1.098,2.512-1.098,3.338c0,0.894,0.777,1.274,2.868,1.412
				v0.857h-7.155v-0.857c1.63-0.277,2.161-0.897,3.505-4.129l7.83-18.745h0.991l7.865,17.955c1.806,4.161,2.444,4.919,3.894,4.919
				v0.857h-11.403v-0.857l1.133-0.105c1.17-0.104,1.629-0.382,1.629-1.135c0-0.758-0.425-1.959-1.629-4.681L549.641,26.75z"/>
			<path fill="#231815" d="M528.724,19.975c8.077,0,12.896,4.297,12.896,11.386c0,3.542-1.522,6.912-4.074,9.079
				c-2.165,1.824-5.351,2.787-8.928,2.787h-10.945v-0.857c2.055-0.073,2.94-0.862,2.94-2.515V23.141c0-1.582-0.674-2.097-2.94-2.305
				v-0.86H528.724z M526.35,39.786c0,1.548,0.46,2.237,2.056,2.237c2.339,0,4.072-0.825,5.277-2.48
				c1.098-1.545,1.771-4.639,1.771-7.667c0-2.958-0.426-5.504-1.45-7.259c-1.35-2.269-3.118-3.471-5.774-3.471
				c-1.382,0-1.88,0.549-1.88,1.512V39.786z"/>
			<path fill="#231815" d="M580.074,43.226v-0.857c2.278-0.073,2.697-0.277,2.697-0.725c0-0.378-0.207-0.724-0.873-1.548
				l-6.344-7.739l-0.942,0.86v6.741c0,1.686,0.526,2.097,3.048,2.411v0.857h-11.767v-0.857c2.59-0.243,3.046-0.656,3.046-2.617
				V23.52c0-2.135-0.633-2.548-3.046-2.684v-0.86h11.804v0.86c-2.596,0.169-3.085,0.79-3.085,2.889v7.671L582.035,24
				c1.091-1.068,1.402-1.445,1.402-1.995c0-0.687-0.416-0.962-1.679-1.069l-1.228-0.102v-0.86h10.123v0.86
				c-3.468,0.412-4.765,0.998-11.277,7.807l10.683,13.001c0.422,0.515,0.839,0.688,1.716,0.725v0.857H580.074z"/>
		</g>
		<g>
			<path fill="#231815" d="M439.314,81.431c-3.413,3.997-6.354,5.075-10.58,5.075c-7.893,0-12.855-5.109-12.855-11.893
				c0-7.371,5.252-12.797,12.747-12.797c1.763,0,3.6,0.381,5.728,1.217c0.844,0.35,1.326,0.488,1.692,0.488
				c0.696,0,1.063-0.349,1.616-1.6h0.99v8.172h-0.918c-0.696-1.878-1.581-3.027-2.459-3.999c-1.692-1.914-3.675-3.128-6.134-3.128
				c-3.858,0-6.758,3.928-6.758,10.883c0,3.51,0.438,6.049,1.981,8.344c1.063,1.6,3.23,2.644,5.398,2.644
				c1.617,0,3.161-0.417,4.631-1.183c1.176-0.625,2.199-1.494,3.817-3.094L439.314,81.431z"/>
			<path fill="#231815" d="M456.412,85.845v-0.87c2.677-0.277,3.264-0.764,3.264-2.538v-7.929h-9.301v7.929
				c0,1.844,0.592,2.261,3.27,2.538v0.87h-12.338v-0.87c2.572-0.312,3.119-0.694,3.119-2.538V65.782
				c0-1.912-0.661-2.365-3.119-2.574v-0.87h12.338v0.87c-2.567,0.176-3.27,0.627-3.27,2.574v7.094h9.301v-7.094
				c0-1.947-0.696-2.398-3.264-2.574v-0.87h12.449v0.87c-2.501,0.176-3.233,0.696-3.233,2.574v16.655
				c0,1.844,0.585,2.227,3.233,2.538v0.87H456.412z"/>
			<path fill="#231815" d="M472.986,85.845v-0.87c2.752-0.243,3.414-0.66,3.414-2.814V65.816c0-1.946-0.768-2.433-3.414-2.608v-0.87
				h12.853v0.87c-2.718,0.105-3.489,0.662-3.489,2.608v16.345c0,2.26,0.699,2.642,3.489,2.814v0.87H472.986z"/>
			<path fill="#231815" d="M510.895,81.431c-3.418,3.997-6.356,5.075-10.578,5.075c-7.895,0-12.855-5.109-12.855-11.893
				c0-7.371,5.254-12.797,12.743-12.797c1.765,0,3.603,0.381,5.733,1.217c0.843,0.35,1.322,0.488,1.688,0.488
				c0.698,0,1.064-0.349,1.615-1.6h0.992v8.172h-0.918c-0.696-1.878-1.576-3.027-2.458-3.999c-1.69-1.914-3.674-3.128-6.135-3.128
				c-3.857,0-6.761,3.928-6.761,10.883c0,3.51,0.444,6.049,1.984,8.344c1.067,1.6,3.231,2.644,5.399,2.644
				c1.618,0,3.161-0.417,4.63-1.183c1.178-0.625,2.203-1.494,3.817-3.094L510.895,81.431z"/>
			<path fill="#231815" d="M527.299,85.845v-0.87c2.344-0.067,2.781-0.277,2.781-0.729c0-0.381-0.216-0.73-0.905-1.564l-6.535-7.824
				l-0.979,0.868v6.816c0,1.704,0.543,2.121,3.145,2.433v0.87h-12.142v-0.87c2.675-0.243,3.141-0.66,3.141-2.642V65.919
				c0-2.153-0.648-2.57-3.141-2.712v-0.87h12.177v0.87c-2.674,0.176-3.18,0.799-3.18,2.922v7.756l7.66-7.478
				c1.118-1.079,1.442-1.46,1.442-2.017c0-0.696-0.434-0.975-1.732-1.078l-1.264-0.105v-0.87h10.442v0.87
				c-3.577,0.419-4.915,1.01-11.637,7.896l11.021,13.143c0.436,0.521,0.866,0.694,1.771,0.729v0.87H527.299z"/>
			<path fill="#231815" d="M591.775,63.208c-2.469,0.348-2.965,0.696-2.965,2.888V86.47h-1.063l-16.996-18.95v13.77
				c0,2.678,0.645,3.374,3.572,3.686v0.87h-8.593v-0.87c2.775-0.312,3.346-0.798,3.346-2.92V65.713
				c-1.596-2.019-2.47-2.506-3.231-2.506v-0.87h8.022l13.269,14.955V66.895c0-2.782-0.686-3.444-3.497-3.688v-0.87h8.136V63.208z"/>
			<path fill="#231815" d="M553.657,63.522c5.985,0,7.857,1.147,8.704,5.805h0.918v-6.989h-21.639v0.87
				c2.532,0.14,3.229,0.696,3.229,2.471v16.655c0,1.81-0.52,2.364-3.229,2.642v0.87h9.179l0,0h12.46v-6.988h-0.918
				c-0.847,4.656-2.719,5.804-8.704,5.804c-1.912,0-2.838-0.555-2.838-1.876v-8.38c4.002,0,6.031,1.251,6.396,5.39h0.957V68.041
				h-0.957c-0.44,4.037-2.502,5.148-6.396,5.183v-7.824C550.819,64.079,551.745,63.522,553.657,63.522z"/>
		</g>
		<rect x="415.879" y="52.288" fill="#231815" width="175.896" height="0.985"/>
	</g>
	<g>
		<g>
			<path fill="#231815" d="M338.342,16.602l1.765-0.984c0.976-0.544,1.688-0.242,2.036,0.288c0.346,0.528,0.306,1.253-0.67,1.798
				l-0.902,0.503l0.764,1.166l-0.859,0.48L338.342,16.602z M340.205,17.652l0.668-0.373c0.401-0.224,0.708-0.495,0.438-0.91
				c-0.273-0.414-0.676-0.289-1.076-0.065l-0.669,0.374L340.205,17.652z"/>
			<path fill="#231815" d="M362.783,9.255l1.412-0.001l1.064,2.606h0.014l1.013-2.608l1.415,0.001l-0.004,3.791l-0.941,0
				l0.002-2.688l-0.012,0l-1.123,2.689l-0.773,0l-1.115-2.662h-0.014l-0.004,2.662l-0.939,0L362.783,9.255z"/>
			<path fill="#231815" d="M373.247,9.856l0.989,0.159l-0.705,3.73l-0.989-0.159L373.247,9.856z"/>
			<path fill="#231815" d="M382.176,14.49c-0.357,0.972-1.223,1.227-2.381,0.861c-1.164-0.365-1.671-1.048-1.312-2.024l0.825-2.233
				l0.951,0.298l-0.824,2.235c-0.145,0.394-0.164,0.818,0.604,1.061c0.679,0.214,0.988,0.036,1.183-0.497l0.826-2.235l0.952,0.3
				L382.176,14.49z"/>
			<path fill="#231815" d="M387.889,14.265l1.221,0.656l-0.498,2.754l0.011,0.005l2.294-1.788l1.221,0.656l-2.065,3.283
				l-0.812-0.438l1.464-2.326l-0.012-0.005l-2.43,1.806l-0.669-0.36l0.48-2.822l-0.01-0.006l-1.449,2.302l-0.811-0.437
				L387.889,14.265z"/>
			<polygon fill="#231815" points="356.203,13.168 356.02,12.253 358.394,11.84 358.264,11.203 355.89,11.617 355.727,10.817 
				358.102,10.407 357.962,9.719 354.598,10.297 355.354,14.029 358.721,13.45 358.58,12.759 			"/>
			<path fill="#231815" d="M350.064,15.452L350.064,15.452l0.903-0.319l-0.35-0.85l-0.009-0.016
				c-0.14-0.355-0.459-0.641-0.945-0.581l-0.004-0.01c0.406-0.324,0.481-0.708,0.308-1.126c-0.219-0.536-0.886-0.808-1.649-0.539
				l-2.299,0.811l1.46,3.545l0.938-0.332l-0.569-1.384l0.937-0.331c0.472-0.166,0.761-0.076,0.932,0.286L350.064,15.452z
				 M348.645,13.733l-1.027,0.361l-0.41-0.998l1.025-0.361c0.42-0.148,0.707-0.078,0.848,0.265
				C349.229,13.357,349.063,13.586,348.645,13.733z"/>
		</g>
		<g>
			<path fill="#231815" d="M366.137,94.123c-0.07-0.376-0.51-0.66-1.01-0.655c-0.903,0.01-1.234,0.652-1.225,1.317
				c0.009,0.635,0.357,1.27,1.262,1.26c0.614-0.007,0.956-0.36,1.025-0.863l0.975-0.01c-0.09,0.947-0.869,1.564-1.99,1.576
				c-1.416,0.015-2.262-0.854-2.277-1.953c-0.016-1.128,0.805-2.016,2.221-2.03c1.006-0.011,1.857,0.469,1.993,1.349L366.137,94.123
				z"/>
			<path fill="#231815" d="M343.045,89.302c0.134-0.361-0.106-0.805-0.547-1.022c-0.802-0.391-1.428,0.024-1.766,0.612
				c-0.322,0.558-0.346,1.268,0.454,1.66c0.544,0.268,1.03,0.108,1.353-0.301l0.863,0.426c-0.574,0.79-1.578,0.981-2.572,0.493
				c-1.256-0.615-1.547-1.75-0.988-2.717c0.574-0.995,1.76-1.409,3.013-0.794c0.891,0.438,1.392,1.237,1.052,2.064L343.045,89.302z"
				/>
			<path fill="#231815" d="M348.334,90.124l0.959,0.289l-0.492,1.39l1.766,0.528l0.49-1.391l0.959,0.289l-1.279,3.621l-0.958-0.287
				L350.329,93l-1.765-0.529l-0.551,1.563l-0.961-0.289L348.334,90.124z"/>
			<path fill="#231815" d="M357.135,92.134l0.994,0.158l-0.711,3.749l-0.993-0.159L357.135,92.134z"/>
			<path fill="#231815" d="M385.584,88.859l0.895-0.42l2.961,1.469l0.012-0.007l-1.255-2.271l0.841-0.395l1.871,3.383l-0.901,0.424
				l-2.951-1.466l-0.011,0.007l1.25,2.264l-0.841,0.395L385.584,88.859z"/>
			<polygon fill="#231815" points="382.535,93.152 380.215,93.826 379.908,92.938 382.222,92.25 382.006,91.631 379.695,92.318 
				379.43,91.541 381.736,90.872 381.507,90.2 378.237,91.148 379.481,94.774 382.77,93.821 			"/>
			<polygon fill="#231815" points="372.901,94.107 374.84,91.964 373.599,92.115 372.236,93.689 372.068,93.884 372.019,93.553 
				371.834,92.33 370.834,92.451 371.381,96.211 372.398,96.076 372.218,94.875 372.167,94.54 372.385,94.683 374.151,95.841 
				375.393,95.676 			"/>
		</g>
		<g>
			<g>
				<path fill="#231815" d="M376.269,61.437c0.832-0.463,1.587-1.054,2.212-1.731l-0.001,0.006c0.019-0.018,0.03-0.037,0.048-0.055
					c0.059-0.065,0.115-0.13,0.172-0.198c3.299-3.939,2.256-8.894,1.575-10.598c-0.089-0.26-0.199-0.499-0.321-0.729
					c-0.037-0.072-0.063-0.123-0.063-0.123v0.003c-0.461-0.812-1.125-1.505-1.938-2.458c-1.614-1.894-1.189-3.93,0.098-5.199
					c-0.745,0.195-1.929,0.783-2.643,1.478c0-5.947-4.959-9.385-9.26-7.065c1.175-0.113,4.703,0.606,4.032,6.827
					c-0.387,3.595-3.375,2.392-2.019,0.115c0.821-1.379,0.643-4.078-1.131-4.572c0.609,1.036-0.563,3.039-1.67,3.858
					c-2.13,1.576-2.607,3.32-1.629,5.95c-1.024-0.564-2.124-0.439-2.124-0.439l0.739,0.714c0.59,0.685,1.078,1.581,1.355,2.634
					c0.689,2.607-0.134,5.064-1.836,5.491c-1.703,0.426-3.641-1.342-4.33-3.949c-0.688-2.607,0.135-5.065,1.837-5.491
					c0.606-0.151,1.239-0.015,1.839,0.328c-0.842-1.554-2.172-1.756-3.26-1.31c0.058-0.75,0.774-1.931,2.43-1.943
					c-1.817-0.971-3.376-0.114-3.689,0.398c0.127-1.527,1.07-2.843,2.98-3.872c-1.085,0.018-3.037,0.059-4.607,1.026
					c-1.453,0.896-1.85,1.995-1.988,3.604c-2.845,0.531-3.503,2.597-3.604,3.339c0,0,1.46-0.998,2.708-0.353
					c0.691,0.358,0.838,1.225,0.332,2.078c-0.859,1.457-1.678,3.742-0.981,6.569c0.017,0.141,0.031,0.28,0.052,0.434
					c0.105,0.743-0.298,0.894-0.759,0.847c-0.53-0.055-1.142-0.376-1.142-0.376c0.238,0.418,0.487,0.802,0.734,1.153
					c1.834,2.62,3.771,3.562,3.955,3.647h-3.875L365,71.781l14.582-10.305h-3.445L376.269,61.437z M374.633,45.542
					c0,0,0.708,2.028,0.678,2.48s-0.432,0.794-0.895,0.765c-0.465-0.03-0.816-0.419-0.786-0.871S374.633,45.542,374.633,45.542z"/>
			</g>
			<path fill="#231815" d="M401.71,52.569L401.71,52.569c-0.008-0.024-0.015-0.049-0.023-0.077
				c-0.005-0.017-0.008-0.027-0.008-0.027v0.005c-0.011-0.029-0.021-0.058-0.033-0.088l-10.368-23.088
				c-0.096-0.269-0.379-0.377-0.702-0.507l-24.767-9.462c-0.184-0.07-0.377-0.106-0.574-0.106c-0.199,0-0.393,0.036-0.573,0.105
				l-24.937,9.527l-0.043,0.021c-0.209,0.115-0.382,0.275-0.508,0.466l-0.021,0.039l-10.33,23.003c-0.152,0.337-0.152,0.724,0,1.059
				l10.332,23.007c0,0,0.154,0.354,0.566,0.521l24.946,9.53c0.183,0.069,0.373,0.104,0.567,0.104c0.195,0,0.387-0.036,0.572-0.105
				l24.845-9.493c0,0,0.47-0.128,0.601-0.42l10.465-23.302c0,0,0.012-0.029,0.022-0.072C401.822,52.906,401.71,52.569,401.71,52.569
				z M390.569,32.69l8.079,17.991l-8.079-7.452V32.69z M387.154,29.541h-11.426l-8.079-7.452L387.154,29.541z M365.234,21.339
				l8.892,8.202h-17.784L365.234,21.339z M362.818,22.089l-8.079,7.452h-11.426L362.818,22.089z M341.031,30.585h12.575
				l-12.575,11.599V30.585z M339.898,73.129l-8.078-17.991l8.078,7.451V73.129z M339.898,61.111l-8.892-8.201l8.892-8.202V61.111z
				 M339.898,43.229l-8.078,7.452l8.078-17.991V43.229z M341.031,63.634l12.575,11.599h-12.575V63.634z M343.313,76.278h11.426
				l8.079,7.453L343.313,76.278z M365.234,84.48l-8.893-8.202h17.785L365.234,84.48z M367.65,83.731l8.079-7.453h11.425
				L367.65,83.731z M389.436,75.233h-12.574l12.574-11.599V75.233z M389.436,62.156l-14.177,13.077h-20.05l-14.178-13.077V43.663
				l14.178-13.078h20.05l14.177,13.077V62.156z M389.436,42.184l-12.574-11.599h12.574V42.184z M390.569,73.129V62.59l8.079-7.452
				L390.569,73.129z M390.569,61.111V44.708l8.892,8.202L390.569,61.111z"/>
		</g>
	</g>
</g>
</svg>
