<?xml version="1.0" encoding="utf-8"?>
<!-- Generator: Adobe Illustrator 26.0.2, SVG Export Plug-In . SVG Version: 6.00 Build 0)  -->
<svg version="1.1" id="Layer_1" xmlns="http://www.w3.org/2000/svg" xmlns:xlink="http://www.w3.org/1999/xlink" x="0px" y="0px"
	 viewBox="0 0 110 150" style="enable-background:new 0 0 110 150;" xml:space="preserve">
<style type="text/css">
	.st0{fill:#E19549;}
	.st1{fill:#FFFFFF;}
</style>
<path class="st0" d="M100.9,150H9.1c-5.02,0-9.1-4.07-9.1-9.1V9.1C0,4.07,4.07,0,9.1,0h91.81c5.02,0,9.1,4.07,9.1,9.1V140.9
	C110,145.93,105.93,150,100.9,150z"/>
<g>
	<path class="st1" d="M12.5,80.56H14c0.55,0,1-0.45,1-1s-0.45-1-1-1h-1.5c-0.55,0-1,0.45-1,1S11.95,80.56,12.5,80.56z"/>
	<path class="st1" d="M39.23,78.56c-0.55,0-1,0.45-1,1s0.45,1,1,1h3.15c0.55,0,1-0.45,1-1s-0.45-1-1-1H39.23z"/>
	<path class="st1" d="M24.46,79.56c0-0.55-0.45-1-1-1h-3.15c-0.55,0-1,0.45-1,1s0.45,1,1,1h3.15
		C24.01,80.56,24.46,80.11,24.46,79.56z"/>
	<path class="st1" d="M89.69,78.56h-3.15c-0.55,0-1,0.45-1,1s0.45,1,1,1h3.15c0.55,0,1-0.45,1-1S90.25,78.56,89.69,78.56z"/>
	<path class="st1" d="M61.31,78.56h-3.15c-0.55,0-1,0.45-1,1s0.45,1,1,1h3.15c0.55,0,1-0.45,1-1S61.86,78.56,61.31,78.56z"/>
	<path class="st1" d="M48.69,78.56c-0.55,0-1,0.45-1,1s0.45,1,1,1h3.15c0.55,0,1-0.45,1-1s-0.45-1-1-1H48.69z"/>
	<path class="st1" d="M80.23,80.56c0.55,0,1-0.45,1-1s-0.45-1-1-1h-3.15c-0.55,0-1,0.45-1,1s0.45,1,1,1H80.23z"/>
	<path class="st1" d="M71.77,79.56c0-0.55-0.45-1-1-1h-3.15c-0.55,0-1,0.45-1,1s0.45,1,1,1h3.15
		C71.32,80.56,71.77,80.11,71.77,79.56z"/>
	<path class="st1" d="M33.92,79.56c0-0.55-0.45-1-1-1h-3.15c-0.55,0-1,0.45-1,1s0.45,1,1,1h3.15
		C33.48,80.56,33.92,80.11,33.92,79.56z"/>
	<path class="st1" d="M96,80.56h1.5c0.55,0,1-0.45,1-1s-0.45-1-1-1H96c-0.55,0-1,0.45-1,1S95.45,80.56,96,80.56z"/>
	<path class="st1" d="M21.69,99.8l1.02,1.52c1.93-0.7,3.3-2.15,4.04-3.96c0.7,1.58,2.04,2.85,3.83,3.5l1-1.5
		c-2.48-0.82-3.91-2.85-3.91-5v-1.8h-1.93v1.65C25.75,96.62,24.32,98.9,21.69,99.8z"/>
	<path class="st1" d="M29.53,102.16c-3.45,0-5.58,1.17-5.58,3.13c0,1.98,2.13,3.15,5.58,3.15c3.46,0,5.58-1.17,5.58-3.15
		C35.1,103.32,32.99,102.16,29.53,102.16z M29.53,106.94c-2.33,0-3.69-0.57-3.69-1.65c0-1.04,1.35-1.63,3.69-1.63
		s3.69,0.59,3.69,1.63C33.22,106.36,31.86,106.94,29.53,106.94z"/>
	<polygon class="st1" points="37.29,95.84 34.92,95.84 34.92,91.69 33.01,91.69 33.01,101.75 34.92,101.75 34.92,97.42 37.29,97.42 
			"/>
	<polygon class="st1" points="54.33,95.66 51.96,95.66 51.96,91.69 50.05,91.69 50.05,101.14 51.96,101.14 51.96,97.23 54.33,97.23 
			"/>
	<path class="st1" d="M48.48,98.27c-2.02,0.43-3.82,0.52-6.98,0.54v-4.48H47v-1.54h-7.41v7.58h1.35c3.59,0,5.56-0.09,7.72-0.56
		L48.48,98.27z"/>
	<path class="st1" d="M41.27,108.23h10.69v-6.26H41.27V108.23z M43.16,103.47h6.93v3.22h-6.93V103.47z"/>
	<polygon class="st1" points="59.69,103.29 57.78,103.29 57.78,108.12 69.41,108.12 69.41,106.57 59.69,106.57 	"/>
	<path class="st1" d="M57.85,98.49h11.28v-6.04H57.85V98.49z M59.72,93.97h7.54v3h-7.54V93.97z"/>
	<polygon class="st1" points="64.61,104.81 64.61,101.68 71.1,101.68 71.1,100.14 55.93,100.14 55.93,101.68 62.71,101.68 
		62.71,104.81 	"/>
	<path class="st1" d="M73.3,104.92c2.96,0,6.96-0.04,10.65-0.74l-0.13-1.39c-3.59,0.54-7.76,0.56-10.76,0.56L73.3,104.92z"/>
	<path class="st1" d="M73.84,96.9c0,2.37,1.93,4.02,4.54,4.02s4.56-1.65,4.56-4.02s-1.95-4.02-4.56-4.02S73.84,94.53,73.84,96.9z
		 M78.38,94.51c1.56,0,2.69,0.93,2.69,2.39c0,1.45-1.13,2.39-2.69,2.39c-1.54,0-2.67-0.94-2.67-2.39
		C75.71,95.43,76.84,94.51,78.38,94.51z"/>
	<rect x="84.82" y="91.69" class="st1" width="1.93" height="16.76"/>
	<path class="st1" d="M16.16,115.98h-1.61c-0.78,0.48-1.69,0.82-2.96,1.04v1.35h2.45v9.11h-2.98v1.76h7.78v-1.76h-2.67V115.98z"/>
	<path class="st1" d="M25.93,121.07c-0.98,0-2.17,0.61-2.96,1.59c0.09-3.89,1.54-5.19,3.26-5.19c0.81,0,1.65,0.41,2.15,1l1.17-1.3
		c-0.78-0.81-1.89-1.46-3.41-1.46c-2.7,0-5.15,2.11-5.15,7.33c0,4.37,2.11,6.43,4.71,6.43c2.22,0,4.08-1.71,4.08-4.32
		C29.76,122.42,28.21,121.07,25.93,121.07z M25.67,127.85c-1.44,0-2.43-1.15-2.65-3.61c0.81-1.19,1.76-1.61,2.52-1.61
		c1.45,0,2.26,0.91,2.26,2.54C27.8,126.85,26.85,127.85,25.67,127.85z"/>
	<path class="st1" d="M36.49,121.07c-0.98,0-2.17,0.61-2.96,1.59c0.09-3.89,1.54-5.19,3.26-5.19c0.81,0,1.65,0.41,2.15,1l1.17-1.3
		c-0.78-0.81-1.89-1.46-3.41-1.46c-2.7,0-5.15,2.11-5.15,7.33c0,4.37,2.11,6.43,4.71,6.43c2.22,0,4.08-1.71,4.08-4.32
		C40.32,122.42,38.76,121.07,36.49,121.07z M36.23,127.85c-1.44,0-2.43-1.15-2.65-3.61c0.81-1.19,1.76-1.61,2.52-1.61
		c1.45,0,2.26,0.91,2.26,2.54C38.36,126.85,37.41,127.85,36.23,127.85z"/>
	<path class="st1" d="M48.54,122.48v-0.09c0.83-0.61,1.8-1.74,1.8-3.11c0-2.09-1.48-3.56-3.85-3.56c-2.22,0-3.89,1.37-3.89,3.48
		c0,1.39,0.81,2.37,1.83,3.09v0.07c-1.26,0.67-2.45,1.8-2.45,3.48c0,2.11,1.89,3.63,4.45,3.63c2.63,0,4.41-1.56,4.41-3.58
		C50.84,124.13,49.75,123.18,48.54,122.48z M46.45,117.25c1.33,0,2.09,0.93,2.09,2.15c0,0.89-0.43,1.7-1.22,2.44
		c-1.52-0.59-2.82-1.22-2.82-2.65C44.51,118,45.34,117.25,46.45,117.25z M46.47,127.94c-1.46,0-2.59-0.94-2.59-2.3
		c0-1.11,0.67-2.02,1.59-2.67c1.85,0.76,3.35,1.3,3.35,2.87C48.82,127.13,47.88,127.94,46.47,127.94z"/>
	<rect x="52.56" y="123.22" class="st1" width="4.89" height="1.57"/>
	<path class="st1" d="M62.23,127.55c2.84-2.96,5.04-5.41,5.04-7.84c0-2.41-1.61-4-4.11-4c-1.78,0-2.98,0.78-4.15,2.04l1.21,1.19
		c0.72-0.83,1.61-1.52,2.69-1.52c1.54,0,2.31,0.96,2.31,2.41c0,2.07-2.3,4.45-6.09,8.17v1.24h8.8v-1.82h-3.46
		C63.79,127.42,62.92,127.48,62.23,127.55z"/>
	<path class="st1" d="M73.72,115.72c-2.21,0-4.06,1.7-4.06,4.32c0,2.74,1.54,4.09,3.83,4.09c1,0,2.19-0.59,2.98-1.61
		c-0.09,3.89-1.56,5.22-3.3,5.22c-0.8,0-1.63-0.41-2.13-1.02l-1.17,1.32c0.76,0.82,1.87,1.45,3.41,1.45c2.69,0,5.15-2.09,5.15-7.32
		C78.44,117.77,76.33,115.72,73.72,115.72z M73.87,122.59c-1.45,0-2.22-0.93-2.22-2.56c0-1.69,0.93-2.67,2.09-2.67
		c1.45,0,2.45,1.13,2.69,3.58C75.66,122.11,74.68,122.59,73.87,122.59z"/>
	<path class="st1" d="M83.35,127.55c2.84-2.96,5.04-5.41,5.04-7.84c0-2.41-1.61-4-4.11-4c-1.78,0-2.98,0.78-4.15,2.04l1.21,1.19
		c0.72-0.83,1.61-1.52,2.69-1.52c1.54,0,2.31,0.96,2.31,2.41c0,2.07-2.3,4.45-6.09,8.17v1.24h8.8v-1.82h-3.46
		C84.91,127.42,84.04,127.48,83.35,127.55z"/>
	<path class="st1" d="M96.69,127.48v-11.5h-1.61c-0.78,0.48-1.69,0.82-2.96,1.04v1.35h2.45v9.11h-2.98v1.76h7.78v-1.76H96.69z"/>
	<path class="st1" d="M28.65,67.8c0.55,0,1-0.45,1-1v-2c0-7.7,6.27-13.97,13.97-13.97S57.59,57.1,57.59,64.8v2c0,0.55,0.45,1,1,1
		s1-0.45,1-1v-2c0-8.15-6.15-14.89-14.05-15.84c3.63-1.19,6.25-4.6,6.25-8.62c0-5.01-4.06-9.07-9.07-9.07
		c-5.01,0-9.07,4.06-9.07,9.07c0,2.76,1.24,5.24,3.19,6.9h-4.29c-0.09,0-0.17-0.08-0.17-0.17v-7.22c0-5.8,4.72-10.53,10.53-10.53
		s10.53,4.72,10.53,10.53h0.03v2.75c0,1.16,0.94,2.1,2.1,2.1s2.1-0.94,2.1-2.1v-3.38c0-1.16-0.94-2.1-2.1-2.1
		c-0.15,0-0.29,0.02-0.44,0.05c-1.23-5.62-6.24-9.84-12.23-9.84c-5.98,0-11,4.22-12.23,9.84c-0.14-0.03-0.29-0.05-0.45-0.05
		c-1.16,0-2.1,0.94-2.1,2.1v3.38c0,1.16,0.94,2.1,2.1,2.1c0.05,0,0.1-0.01,0.15-0.02v2.38c0,1.2,0.97,2.17,2.17,2.17h6.36v-0.68
		c0.52,0.24,1.07,0.44,1.64,0.58c-7.33,1.44-12.88,7.91-12.88,15.66v2C27.65,67.35,28.1,67.8,28.65,67.8z"/>
	<path class="st1" d="M65.12,34.66l-1.68,1.59c-0.6,0.57-0.63,1.52-0.06,2.12c0.29,0.31,0.69,0.47,1.09,0.47
		c0.37,0,0.74-0.14,1.03-0.41l4.37-4.15c0.45-0.42,0.59-1.07,0.36-1.64s-0.78-0.94-1.39-0.94h-3.1c-1.55,0-2.82-1.26-2.82-2.82
		v-10.9c0-1.55,1.26-2.82,2.82-2.82H85.9c1.55,0,2.82,1.26,2.82,2.82v10.9c0,1.55-1.26,2.82-2.81,2.82l-9.85-0.06c0,0-0.01,0-0.01,0
		c-0.82,0-1.5,0.67-1.5,1.49c0,0.83,0.66,1.5,1.49,1.51l9.86,0.06c3.21,0,5.82-2.61,5.82-5.82v-10.9c0-3.21-2.61-5.82-5.82-5.82
		H65.75c-3.21,0-5.82,2.61-5.82,5.82v10.9C59.93,31.87,62.21,34.35,65.12,34.66z"/>
</g>
<path class="st0" d="M42.89,45.71c-1.59,0-2.89-1.29-2.89-2.89c0-0.28,0.22-0.5,0.5-0.5s0.5,0.22,0.5,0.5
	c0,1.04,0.85,1.89,1.89,1.89s1.89-0.85,1.89-1.89c0-0.28,0.22-0.5,0.5-0.5s0.5,0.22,0.5,0.5C45.77,44.41,44.48,45.71,42.89,45.71z"
	/>
<path class="st0" d="M35.5,47.83L35.5,47.83c0-1.02,0.82-1.84,1.84-1.84h2.24c1.02,0,1.84,0.82,1.84,1.84v0
	c0,1.02-0.82,1.84-1.84,1.84h-2.24C36.33,49.67,35.5,48.85,35.5,47.83z"/>
</svg>
