<?xml version="1.0" encoding="utf-8"?>
<!-- Generator: Adobe Illustrator 26.0.2, SVG Export Plug-In . SVG Version: 6.00 Build 0)  -->
<svg version="1.1" id="Layer_1" xmlns="http://www.w3.org/2000/svg" xmlns:xlink="http://www.w3.org/1999/xlink" x="0px" y="0px"
	 viewBox="0 0 612 107" style="enable-background:new 0 0 612 107;" xml:space="preserve">
<style type="text/css">
	.st0{fill:#231916;}
	.st1{fill:#221E1F;}
	.st2{fill:#0D0D0D;}
</style>
<g>
	<g>
		<g>
			<path class="st0" d="M434.74,23.95c5.33,0,8.58,1.88,8.58,5.78c0,2.55-1.46,4.5-4.11,5.49c-1.37,0.51-2.46,0.6-6.67,0.64v6.13
				c0,2.14,0.25,2.42,2.78,2.74v0.8h-10.63v-0.8c0.61-0.07,1.08-0.13,1.44-0.29c1.05-0.41,1.25-1.31,1.25-2.93V27.87
				c0-2.49-0.44-2.93-2.68-3.13v-0.8H434.74z M432.54,34.73c3.99-0.03,5.3-1.12,5.3-4.66c0-3.54-1.05-5.01-3.7-5.01
				c-1.05,0-1.59,0.38-1.59,1.12V34.73z"/>
			<path class="st0" d="M465.65,24.75c-2.04,0.32-2.49,0.83-2.49,2.71v10.02c0,3.19-0.86,5.65-2.42,6.89
				c-1.37,1.12-3.6,1.76-5.87,1.76c-2.36,0-4.4-0.54-5.9-1.72c-1.82-1.44-2.55-3.16-2.55-6.26V27.81c0-2.59-0.38-2.84-2.62-3.06
				v-0.8h10.72v0.8c-2.49,0.19-3.03,0.61-3.03,3.22v10.15c0,4.43,1.56,6.45,4.66,6.45c3.73,0,5.62-2.36,5.62-7.08v-9.57
				c0-2.33-0.73-2.97-3.1-3.16v-0.8h6.99V24.75z"/>
			<path class="st0" d="M482.16,45.52l-6.27-9.99h-0.85v6.26c0,2.33,0.3,2.62,2.67,2.94v0.8h-10.24v-0.8
				c2.36-0.29,2.67-0.51,2.67-3.03V27.93c0-2.49-0.42-3.03-2.67-3.19v-0.8h9.34c5.91,0,8.97,1.82,8.97,5.49
				c0,1.43-0.48,2.9-1.36,3.76c-0.85,0.8-1.64,1.31-3.4,1.82l6.03,9c0.27,0.41,0.79,0.7,1.33,0.7v0.8H482.16z M475.04,34.51
				c3.97-0.03,5.55-0.86,5.55-4.75c0-3.38-1.12-4.72-3.94-4.72c-1.18,0-1.6,0.38-1.6,1.44V34.51z"/>
			<path class="st0" d="M497.71,30.23l-3.7,10.08c-0.36,0.99-0.94,2.33-0.94,3.1c0,0.83,0.67,1.18,2.46,1.31v0.8h-6.12v-0.8
				c1.39-0.26,1.85-0.83,3-3.83l6.7-17.39h0.85l6.73,16.66c1.54,3.86,2.09,4.56,3.33,4.56v0.8h-9.76v-0.8l0.97-0.1
				c1-0.1,1.4-0.35,1.4-1.05c0-0.7-0.36-1.82-1.4-4.34L497.71,30.23z"/>
			<path class="st0" d="M539.15,30.23l-3.7,10.08c-0.36,0.99-0.94,2.33-0.94,3.1c0,0.83,0.67,1.18,2.45,1.31v0.8h-6.12v-0.8
				c1.4-0.26,1.85-0.83,3-3.83l6.7-17.39h0.85l6.73,16.66c1.55,3.86,2.09,4.56,3.33,4.56v0.8h-9.76v-0.8l0.97-0.1
				c1-0.1,1.39-0.35,1.39-1.05c0-0.7-0.36-1.82-1.39-4.34L539.15,30.23z"/>
			<path class="st0" d="M521.25,23.95c6.91,0,11.03,3.99,11.03,10.56c0,3.29-1.3,6.41-3.49,8.42c-1.85,1.69-4.58,2.59-7.64,2.59
				h-9.37v-0.8c1.76-0.07,2.52-0.8,2.52-2.33V26.88c0-1.47-0.58-1.95-2.52-2.14v-0.8H521.25z M519.22,42.33
				c0,1.44,0.39,2.08,1.76,2.08c2,0,3.49-0.77,4.52-2.3c0.94-1.43,1.52-4.3,1.52-7.11c0-2.74-0.36-5.11-1.24-6.73
				c-1.15-2.1-2.67-3.22-4.94-3.22c-1.18,0-1.61,0.51-1.61,1.4V42.33z"/>
			<path class="st0" d="M565.2,45.52v-0.8c1.95-0.07,2.31-0.26,2.31-0.67c0-0.35-0.18-0.67-0.75-1.44l-5.43-7.18l-0.81,0.8v6.25
				c0,1.56,0.45,1.95,2.61,2.24v0.8h-10.07v-0.8c2.22-0.23,2.61-0.61,2.61-2.43V27.24c0-1.98-0.54-2.36-2.61-2.49v-0.8h10.1v0.8
				c-2.22,0.16-2.64,0.73-2.64,2.68v7.12l6.35-6.86c0.93-0.99,1.2-1.34,1.2-1.85c0-0.64-0.36-0.89-1.44-0.99l-1.05-0.09v-0.8h8.66
				v0.8c-2.97,0.38-4.08,0.93-9.65,7.24l9.14,12.06c0.36,0.48,0.72,0.64,1.47,0.67v0.8H565.2z"/>
		</g>
		<g>
			<path class="st0" d="M444.75,80.96c-2.92,3.71-5.44,4.71-9.05,4.71c-6.75,0-11-4.74-11-11.03c0-6.84,4.49-11.87,10.91-11.87
				c1.51,0,3.08,0.35,4.9,1.13c0.72,0.32,1.13,0.45,1.45,0.45c0.6,0,0.91-0.32,1.38-1.48h0.85v7.58h-0.78
				c-0.6-1.74-1.35-2.81-2.11-3.71c-1.45-1.77-3.14-2.9-5.25-2.9c-3.3,0-5.78,3.64-5.78,10.1c0,3.26,0.38,5.61,1.7,7.74
				c0.91,1.48,2.76,2.45,4.62,2.45c1.38,0,2.71-0.39,3.96-1.1c1.01-0.58,1.88-1.38,3.27-2.87L444.75,80.96z"/>
			<path class="st0" d="M459.38,85.06v-0.81c2.29-0.26,2.79-0.71,2.79-2.36v-7.35h-7.96v7.35c0,1.71,0.51,2.1,2.8,2.36v0.81h-10.56
				v-0.81c2.2-0.29,2.67-0.64,2.67-2.36V66.44c0-1.77-0.57-2.19-2.67-2.39v-0.81h10.56v0.81c-2.2,0.16-2.8,0.58-2.8,2.39v6.58h7.96
				v-6.58c0-1.81-0.6-2.23-2.79-2.39v-0.81h10.65v0.81c-2.14,0.16-2.77,0.65-2.77,2.39v15.45c0,1.71,0.5,2.07,2.77,2.36v0.81H459.38
				z"/>
			<path class="st0" d="M473.56,85.06v-0.81c2.36-0.23,2.92-0.61,2.92-2.61V66.48c0-1.81-0.66-2.26-2.92-2.42v-0.81h11v0.81
				c-2.33,0.1-2.99,0.61-2.99,2.42v15.16c0,2.1,0.6,2.45,2.99,2.61v0.81H473.56z"/>
			<path class="st0" d="M506,80.96c-2.92,3.71-5.44,4.71-9.05,4.71c-6.76,0-11-4.74-11-11.03c0-6.84,4.5-11.87,10.91-11.87
				c1.51,0,3.08,0.35,4.91,1.13c0.72,0.32,1.13,0.45,1.44,0.45c0.6,0,0.91-0.32,1.38-1.48h0.85v7.58h-0.79
				c-0.6-1.74-1.35-2.81-2.1-3.71c-1.45-1.77-3.14-2.9-5.25-2.9c-3.3,0-5.79,3.64-5.79,10.1c0,3.26,0.38,5.61,1.7,7.74
				c0.91,1.48,2.77,2.45,4.62,2.45c1.39,0,2.7-0.39,3.96-1.1c1.01-0.58,1.89-1.38,3.27-2.87L506,80.96z"/>
			<path class="st0" d="M520.03,85.06v-0.81c2.01-0.06,2.38-0.26,2.38-0.68c0-0.35-0.18-0.68-0.77-1.45l-5.59-7.26l-0.84,0.8v6.32
				c0,1.58,0.46,1.97,2.69,2.26v0.81h-10.39v-0.81c2.29-0.23,2.69-0.61,2.69-2.45V66.57c0-2-0.55-2.39-2.69-2.52v-0.81h10.42v0.81
				c-2.29,0.16-2.72,0.74-2.72,2.71v7.2l6.56-6.94c0.96-1,1.23-1.35,1.23-1.87c0-0.65-0.37-0.9-1.48-1l-1.08-0.1v-0.81h8.94v0.81
				c-3.06,0.39-4.21,0.94-9.96,7.32l9.43,12.19c0.37,0.48,0.74,0.65,1.52,0.68v0.81H520.03z"/>
			<path class="st0" d="M575.21,64.06c-2.11,0.32-2.54,0.65-2.54,2.68v18.9h-0.91l-14.54-17.58v12.77c0,2.49,0.55,3.13,3.06,3.42
				v0.81h-7.35v-0.81c2.37-0.29,2.86-0.74,2.86-2.71V66.38c-1.37-1.87-2.11-2.32-2.77-2.32v-0.81h6.86l11.35,13.87v-9.64
				c0-2.58-0.59-3.19-2.99-3.42v-0.81h6.96V64.06z"/>
			<path d="M542.59,64.35c5.12,0,6.72,1.06,7.45,5.38h0.79v-6.48h-18.52v0.81c2.17,0.13,2.76,0.65,2.76,2.29V81.8
				c0,1.68-0.44,2.19-2.76,2.45v0.81h7.85l0,0h10.66v-6.48h-0.79c-0.72,4.32-2.33,5.38-7.45,5.38c-1.64,0-2.43-0.52-2.43-1.74v-7.77
				c3.42,0,5.16,1.16,5.47,5h0.82v-10.9h-0.82c-0.38,3.74-2.14,4.78-5.47,4.81v-7.26C540.16,64.86,540.95,64.35,542.59,64.35z"/>
		</g>
		<rect x="424.69" y="53.92" class="st0" width="150.52" height="0.91"/>
	</g>
	<g>
		<g>
			<path class="st0" d="M412.53,54.01l-8.89-21.47l-0.07-0.03c-0.13-0.17-0.31-0.3-0.51-0.39l-21.2-8.78
				c-0.16-0.07-0.32-0.1-0.49-0.1s-0.34,0.03-0.49,0.1l-21.34,8.84l-0.03,0.03c-0.18,0.11-0.33,0.26-0.43,0.43l-0.03,0.03
				l-8.84,21.35c-0.13,0.31-0.13,0.67,0,0.98l8.84,21.35l0.03,0.03c0.11,0.18,0.25,0.32,0.43,0.43l0.03,0.03l21.35,8.84
				c0.16,0.06,0.32,0.1,0.49,0.1c0.17,0,0.33-0.03,0.49-0.1l21.34-8.84l0.03-0.03c0.13-0.08,0.24-0.18,0.34-0.3l0.07-0.03
				l8.96-21.62v-0.05c0.01-0.06,0.02-0.12,0.02-0.16c0.01-0.09,0.01-0.17,0-0.25C412.61,54.31,412.59,54.17,412.53,54.01z
				 M403.05,35.74l6.92,16.69l-6.92-6.92V35.74z M400.12,32.82h-9.78l-6.92-6.92L400.12,32.82z M388.97,32.82h-15.22l7.61-7.61
				L388.97,32.82z M362.6,32.82l16.69-6.92l-6.91,6.92H362.6z M371.41,33.79l-10.76,10.76V33.79H371.41z M360.65,75.22V64.45
				l10.76,10.76H360.65z M372.38,76.19l6.92,6.91l-16.69-6.91H372.38z M352.07,54.5l7.61-7.61v15.22L352.07,54.5z M359.68,63.48
				v9.78l-6.92-16.69L359.68,63.48z M352.76,52.43l6.92-16.69v9.78L352.76,52.43z M381.36,83.8l-7.61-7.61h15.22L381.36,83.8z
				 M383.43,83.1l6.92-6.91h9.78L383.43,83.1z M402.08,75.22h-10.76l10.76-10.76V75.22z M402.08,63.08l-12.13,12.13h-17.16
				l-12.14-12.13V45.92l12.14-12.14h17.16l12.13,12.14V63.08z M402.08,44.55l-10.76-10.76h10.76V44.55z M403.05,73.26v-9.78
				l6.92-6.92L403.05,73.26z M403.05,62.11V46.89l7.61,7.61L403.05,62.11z"/>
			<path class="st0" d="M390.81,62.42c0.71-0.43,1.36-0.98,1.89-1.61l0,0.01c0.02-0.02,0.03-0.03,0.04-0.05
				c0.05-0.06,0.1-0.12,0.15-0.18c2.82-3.66,1.93-8.25,1.35-9.84c-0.08-0.24-0.17-0.46-0.28-0.68c-0.03-0.07-0.05-0.11-0.05-0.11v0
				c-0.39-0.75-0.96-1.4-1.66-2.28c-1.38-1.76-1.02-3.65,0.08-4.82c-0.64,0.18-1.65,0.73-2.26,1.37c0-5.52-4.24-8.71-7.93-6.56
				c1.01-0.1,4.03,0.56,3.45,6.34c-0.33,3.34-2.89,2.22-1.73,0.11c0.7-1.28,0.55-3.78-0.97-4.24c0.52,0.96-0.48,2.82-1.43,3.58
				c-1.82,1.46-2.23,3.08-1.39,5.52c-0.88-0.52-1.82-0.41-1.82-0.41l0.63,0.66c0.5,0.64,0.92,1.47,1.16,2.44
				c0.59,2.42-0.11,4.7-1.57,5.1c-1.46,0.4-3.12-1.25-3.71-3.66c-0.59-2.42,0.11-4.7,1.57-5.1c0.52-0.14,1.06-0.01,1.57,0.3
				c-0.72-1.44-1.86-1.63-2.79-1.22c0.05-0.7,0.66-1.79,2.08-1.8c-1.56-0.9-2.89-0.11-3.16,0.37c0.11-1.42,0.92-2.64,2.55-3.59
				c-0.93,0.02-2.6,0.05-3.94,0.95c-1.24,0.83-1.58,1.85-1.7,3.34c-2.44,0.49-3,2.41-3.09,3.1c0,0,1.25-0.93,2.32-0.33
				c0.59,0.33,0.72,1.14,0.28,1.93c-0.74,1.35-1.44,3.47-0.84,6.1c0.01,0.13,0.03,0.26,0.04,0.4c0.09,0.69-0.25,0.83-0.65,0.78
				c-0.45-0.05-0.98-0.35-0.98-0.35c0.2,0.39,0.42,0.74,0.63,1.07c1.57,2.43,3.23,3.3,3.38,3.38h-3.32l12.41,9.56l12.48-9.56h-2.95
				L390.81,62.42z M389.41,47.67c0,0,0.61,1.88,0.58,2.3c-0.03,0.42-0.37,0.74-0.77,0.71c-0.4-0.03-0.7-0.39-0.67-0.81
				C388.58,49.45,389.41,47.67,389.41,47.67z"/>
		</g>
		<g>
			<path class="st0" d="M358.34,20.82l1.51-0.91c0.83-0.51,1.45-0.22,1.74,0.27c0.3,0.49,0.26,1.16-0.57,1.67l-0.77,0.47l0.65,1.08
				l-0.74,0.45L358.34,20.82z M359.94,21.79l0.57-0.35c0.34-0.21,0.61-0.46,0.37-0.84c-0.23-0.38-0.58-0.27-0.92-0.06l-0.57,0.35
				L359.94,21.79z"/>
			<path class="st0" d="M379.26,14l1.21,0l0.91,2.42h0.01l0.87-2.42l1.21,0l0,3.52l-0.81,0l0-2.49h-0.01l-0.96,2.5l-0.66,0
				l-0.95-2.47h-0.01l0,2.47l-0.8,0L379.26,14z"/>
			<path class="st0" d="M388.21,14.56l0.85,0.15l-0.6,3.46l-0.85-0.15L388.21,14.56z"/>
			<path class="st0" d="M395.85,18.86c-0.31,0.9-1.05,1.14-2.04,0.8c-1-0.34-1.43-0.97-1.12-1.88l0.71-2.07l0.81,0.28l-0.71,2.07
				c-0.12,0.36-0.14,0.76,0.52,0.98c0.58,0.2,0.85,0.03,1.01-0.46l0.71-2.07l0.81,0.28L395.85,18.86z"/>
			<path class="st0" d="M400.74,18.65l1.04,0.61l-0.43,2.55l0.01,0.01l1.96-1.66l1.04,0.61l-1.77,3.05l-0.69-0.41l1.25-2.16
				l-0.01-0.01l-2.08,1.68l-0.57-0.33l0.41-2.62l-0.01-0.01l-1.24,2.14l-0.69-0.41L400.74,18.65z"/>
			<polygon class="st0" points="373.63,17.63 373.47,16.78 375.5,16.4 375.39,15.81 373.36,16.19 373.22,15.45 375.25,15.07 
				375.13,14.43 372.25,14.97 372.9,18.43 375.78,17.89 375.66,17.25 			"/>
			<path class="st0" d="M368.37,19.75L368.37,19.75l0.77-0.3l-0.3-0.79l-0.01-0.01c-0.12-0.33-0.39-0.59-0.81-0.54l0-0.01
				c0.35-0.3,0.41-0.66,0.26-1.04c-0.19-0.5-0.76-0.75-1.41-0.5l-1.97,0.75l1.25,3.29l0.8-0.31l-0.49-1.28l0.8-0.31
				c0.4-0.15,0.65-0.07,0.8,0.27L368.37,19.75z M367.16,18.16l-0.88,0.33l-0.35-0.93l0.88-0.34c0.36-0.14,0.6-0.07,0.73,0.25
				C367.66,17.81,367.52,18.02,367.16,18.16z"/>
		</g>
		<g>
			<path class="st0" d="M382.13,92.74c-0.06-0.35-0.44-0.61-0.86-0.61c-0.77,0.01-1.06,0.61-1.05,1.22
				c0.01,0.59,0.31,1.18,1.08,1.17c0.53-0.01,0.82-0.33,0.88-0.8l0.83-0.01c-0.08,0.88-0.74,1.45-1.7,1.46
				c-1.21,0.01-1.94-0.79-1.95-1.81c-0.01-1.05,0.69-1.87,1.9-1.88c0.86-0.01,1.59,0.44,1.71,1.25L382.13,92.74z"/>
			<path class="st0" d="M362.37,88.26c0.12-0.34-0.09-0.75-0.47-0.95c-0.69-0.36-1.22,0.02-1.51,0.57c-0.28,0.52-0.3,1.18,0.39,1.54
				c0.47,0.25,0.88,0.1,1.16-0.28l0.74,0.39c-0.49,0.73-1.35,0.91-2.2,0.46c-1.07-0.57-1.32-1.62-0.85-2.52
				c0.49-0.92,1.51-1.31,2.58-0.74c0.76,0.41,1.19,1.15,0.9,1.92L362.37,88.26z"/>
			<path class="st0" d="M366.89,89.03l0.82,0.27l-0.42,1.29l1.51,0.49l0.42-1.29l0.82,0.27l-1.09,3.36l-0.82-0.27l0.47-1.45
				l-1.51-0.49l-0.47,1.45l-0.82-0.27L366.89,89.03z"/>
			<path class="st0" d="M374.42,90.89l0.85,0.15l-0.61,3.48l-0.85-0.15L374.42,90.89z"/>
			<path class="st0" d="M398.77,87.85l0.77-0.39l2.53,1.36l0.01-0.01L401,86.71l0.72-0.37l1.6,3.14l-0.77,0.39l-2.53-1.36
				l-0.01,0.01l1.07,2.1l-0.72,0.37L398.77,87.85z"/>
			<polygon class="st0" points="396.16,91.84 394.17,92.46 393.91,91.64 395.89,91 395.71,90.42 393.73,91.06 393.5,90.34 
				395.48,89.72 395.28,89.1 392.48,89.98 393.55,93.34 396.36,92.46 			"/>
			<polygon points="387.92,92.72 389.58,90.73 388.51,90.87 387.35,92.33 387.2,92.51 387.16,92.21 387,91.07 386.15,91.18 
				386.61,94.67 387.49,94.55 387.33,93.43 387.29,93.12 387.47,93.26 388.99,94.33 390.05,94.18 			"/>
		</g>
	</g>
</g>
<g>
	<g>
		<path class="st1" d="M112.91,83h-1.72c-1.54-2.44-3.81-6.04-3.81-11.11c0-5.07,2.27-8.67,3.81-11.11h1.72
			c-2.32,4.18-3.21,7.73-3.21,11.11C109.7,75.27,110.6,78.82,112.91,83z"/>
		<path class="st1" d="M125.34,75.25v7.39h-2.29v-7.39h-8.94v-2h20.18v2H125.34z M133.05,69.77l-1.54,1.71
			c-2.8-0.68-6.08-2.66-7.32-4.66c-1.24,1.91-3.85,3.81-7.32,4.66l-1.54-1.71c5.37-1.21,7.34-4.23,7.64-5.53h-6.49v-2.03h15.41v2.03
			h-6.49C125.71,65.54,127.59,68.41,133.05,69.77z"/>
		<path class="st1" d="M138.56,71.89c0-3.38-0.89-6.93-3.21-11.11h1.72c1.54,2.44,3.81,6.04,3.81,11.11c0,5.07-2.27,8.67-3.81,11.11
			h-1.72C137.67,78.82,138.56,75.27,138.56,71.89z"/>
		<path class="st1" d="M152.14,78.68c-3.33,0-5.48-3.09-5.48-7.85c0-4.8,2.16-7.85,5.48-7.85c3.37,0,5.48,3.07,5.48,7.85
			C157.62,75.56,155.51,78.68,152.14,78.68z M152.16,65.11c-2.04,0-3.23,2.68-3.23,5.7c0,3.09,1.19,5.72,3.23,5.72
			c2.06,0,3.19-2.63,3.19-5.72C155.35,67.76,154.23,65.11,152.16,65.11z M163.43,61.39v8.77h3.03v2.15h-3.03v10.33h-2.29V61.39
			H163.43z"/>
		<path class="st1" d="M173.89,78.68c-3.33,0-5.5-3.09-5.5-7.85c0-4.8,2.18-7.85,5.5-7.85c3.35,0,5.46,3.07,5.46,7.85
			C179.35,75.56,177.24,78.68,173.89,78.68z M173.91,65.11c-2.04,0-3.26,2.68-3.26,5.7c0,3.09,1.22,5.72,3.26,5.72
			c2.04,0,3.19-2.63,3.19-5.72C177.1,67.76,175.95,65.11,173.91,65.11z M183.36,82.64V61.39h2.29v21.25H183.36z"/>
		<path class="st1" d="M195,77.78l-4.79,0.05V63.8h9.86v2.05h-7.57v9.9l3.42-0.02c2.04-0.05,5.25-0.41,5.85-0.53v2
			C201.17,77.3,198.14,77.76,195,77.78z M204.24,82.64V71.26h-5.53v-2.03h5.53v-7.85h2.29v21.25H204.24z"/>
		<path class="st1" d="M209.54,79.5v-2.03h20.18v2.03H209.54z M212.2,74.45l-1.6-1.76c6.9-2.46,7.82-6.64,7.82-8.64v-1.47h2.43v1.47
			c0,2,1.17,6.28,7.82,8.64l-1.61,1.76c-3.1-0.94-6.42-4.06-7.43-6.4C218.74,70.66,215.21,73.51,212.2,74.45z"/>
		<path class="st1" d="M237.07,79.79v-2.03h7.22v-5h2.34v5h10.62v2.03H237.07z M253.4,75.49h-2.29c0.02-0.12,0.55-2.41,0.87-5.05
			c-1.31,0.19-3.1,0.31-4.7,0.39c-2.52,0.14-7.79,0.1-8.07,0.1V68.9c0.3,0,6.05,0.05,8.14-0.07c1.7-0.1,3.67-0.24,4.91-0.44
			c0.16-1.45,0.21-1.93,0.25-2.87h-13v-2.03h15.5C255.01,66.19,254.2,72.45,253.4,75.49z"/>
		<path class="st1" d="M265.98,78.39l-5.8,0.05v-8.62h7.59v-4.32h-7.59v-2.05h9.86v8.4h-7.57v4.54l4.22-0.02
			c2.02-0.05,4.91-0.31,6.21-0.56v2C271.53,78.03,268.52,78.34,265.98,78.39z M274.21,82.64V61.39h2.29v21.25H274.21z"/>
		<path class="st1" d="M285.78,78.68c-3.33,0-5.48-3.09-5.48-7.85c0-4.8,2.15-7.85,5.48-7.85c3.37,0,5.48,3.07,5.48,7.85
			C291.26,75.56,289.15,78.68,285.78,78.68z M285.8,65.11c-2.04,0-3.23,2.68-3.23,5.7c0,3.09,1.19,5.72,3.23,5.72
			c2.07,0,3.19-2.63,3.19-5.72C288.99,67.76,287.86,65.11,285.8,65.11z M297.06,61.39v8.77h3.03v2.15h-3.03v10.33h-2.29V61.39
			H297.06z"/>
	</g>
	<g>
		<path class="st1" d="M118.29,46.2v0.61h-11.44V46.2h0.73c0.64,0,1.15-0.11,1.53-0.35c0.28-0.15,0.49-0.42,0.65-0.79
			c0.12-0.26,0.18-0.95,0.18-2.07V28.33c0-1.14-0.06-1.85-0.18-2.14c-0.12-0.28-0.36-0.53-0.72-0.75c-0.36-0.21-0.85-0.32-1.46-0.32
			h-0.73v-0.61h11.44v0.61h-0.73c-0.63,0-1.15,0.12-1.53,0.35c-0.28,0.15-0.5,0.42-0.66,0.79c-0.12,0.26-0.18,0.95-0.18,2.07V43
			c0,1.14,0.06,1.85,0.19,2.14c0.12,0.29,0.36,0.53,0.73,0.75c0.36,0.21,0.85,0.32,1.46,0.32H118.29z"/>
		<path class="st1" d="M133.06,46.81c-1.41,0-2.44-0.07-3.1-0.2c-1.49-0.28-2.74-0.69-3.77-1.21c-1.03-0.52-1.93-1.21-2.72-2.07
			c-0.79-0.86-1.43-1.95-1.92-3.27c-0.49-1.32-0.74-2.76-0.74-4.33c0-2.27,0.5-4.3,1.51-6.1c1.01-1.8,2.48-3.14,4.43-4.03
			c1.59-0.72,3.69-1.09,6.31-1.09h9.8v0.61h-0.73c-0.61,0-1.1,0.11-1.46,0.32c-0.36,0.21-0.6,0.46-0.72,0.75
			c-0.12,0.29-0.18,1-0.18,2.14V43c0,1.15,0.05,1.84,0.15,2.07c0.16,0.35,0.41,0.63,0.75,0.83c0.34,0.2,0.83,0.3,1.46,0.3h0.73v0.61
			H133.06z M130.65,26.28c-1.1,0.48-2,1.39-2.7,2.73c-0.88,1.71-1.32,4-1.32,6.86c0,3.55,0.65,6.17,1.94,7.86
			c0.95,1.25,2.32,1.87,4.12,1.87c0.55,0,0.97-0.08,1.26-0.25c0.2-0.11,0.35-0.27,0.44-0.48c0.09-0.21,0.13-0.77,0.13-1.69v-17.4
			C132.71,25.77,131.43,25.94,130.65,26.28z"/>
		<path class="st1" d="M145.3,24.52h11.3v0.61h-0.57c-0.85,0-1.43,0.09-1.75,0.27c-0.32,0.18-0.54,0.43-0.68,0.75
			c-0.13,0.32-0.2,1.11-0.2,2.38v10.92c0,2,0.15,3.32,0.44,3.96c0.3,0.65,0.78,1.18,1.46,1.61c0.68,0.43,1.53,0.64,2.57,0.64
			c1.18,0,2.19-0.27,3.03-0.81c0.83-0.54,1.46-1.29,1.87-2.24c0.41-0.95,0.62-2.62,0.62-4.98v-9.09c0-1-0.1-1.71-0.31-2.14
			c-0.21-0.43-0.46-0.72-0.78-0.89c-0.48-0.25-1.17-0.38-2.05-0.38v-0.61h7.57v0.61h-0.45c-0.61,0-1.12,0.13-1.53,0.38
			c-0.41,0.25-0.7,0.63-0.89,1.13c-0.14,0.35-0.21,0.98-0.21,1.89V37c0,2.62-0.17,4.51-0.51,5.67c-0.34,1.16-1.16,2.23-2.48,3.21
			c-1.31,0.98-3.1,1.46-5.37,1.46c-1.89,0-3.36-0.26-4.39-0.77c-1.41-0.7-2.4-1.6-2.98-2.7c-0.58-1.1-0.87-2.57-0.87-4.42V28.53
			c0-1.28-0.07-2.08-0.21-2.39c-0.14-0.31-0.38-0.56-0.73-0.75c-0.34-0.19-0.98-0.27-1.9-0.26V24.52z"/>
		<path class="st1" d="M182.98,24.01l0.18,7.43h-0.66c-0.31-1.86-1.08-3.36-2.3-4.5c-1.22-1.14-2.54-1.7-3.96-1.7
			c-1.1,0-1.97,0.3-2.61,0.9c-0.64,0.6-0.96,1.28-0.96,2.06c0,0.49,0.11,0.93,0.34,1.31c0.31,0.52,0.81,1.03,1.5,1.53
			c0.51,0.36,1.67,1,3.5,1.92c2.56,1.28,4.29,2.49,5.18,3.63c0.88,1.14,1.32,2.44,1.32,3.91c0,1.86-0.71,3.47-2.14,4.81
			c-1.42,1.34-3.24,2.01-5.43,2.01c-0.69,0-1.34-0.07-1.95-0.21c-0.61-0.14-1.38-0.41-2.31-0.81c-0.52-0.22-0.94-0.33-1.28-0.33
			c-0.28,0-0.58,0.11-0.89,0.33c-0.31,0.22-0.56,0.55-0.76,1h-0.6V38.9h0.6c0.47,2.37,1.39,4.17,2.74,5.42
			c1.35,1.24,2.81,1.87,4.37,1.87c1.21,0,2.17-0.33,2.88-1c0.71-0.67,1.07-1.45,1.07-2.34c0-0.53-0.14-1.04-0.41-1.53
			c-0.27-0.49-0.69-0.96-1.25-1.41c-0.56-0.44-1.55-1.02-2.97-1.74c-1.99-1-3.42-1.85-4.29-2.55c-0.87-0.7-1.54-1.49-2.01-2.35
			c-0.47-0.87-0.7-1.82-0.7-2.86c0-1.78,0.64-3.29,1.92-4.54c1.28-1.25,2.89-1.87,4.84-1.87c0.71,0,1.4,0.09,2.06,0.26
			c0.51,0.13,1.12,0.38,1.85,0.73c0.73,0.36,1.24,0.53,1.53,0.53c0.28,0,0.5-0.09,0.66-0.26c0.16-0.18,0.31-0.6,0.45-1.27H182.98z"
			/>
		<path class="st1" d="M204.71,34.48l7.84,7.93c1.28,1.31,2.38,2.2,3.29,2.67c0.91,0.47,1.82,0.74,2.73,0.81v0.59h-10.11V45.9
			c0.61,0,1.04-0.1,1.31-0.31c0.27-0.21,0.4-0.44,0.4-0.69c0-0.26-0.05-0.48-0.15-0.69c-0.1-0.2-0.43-0.58-0.98-1.13l-7.33-7.39
			v6.98c0,1.1,0.07,1.82,0.2,2.17c0.11,0.27,0.32,0.49,0.66,0.69c0.45,0.26,0.92,0.38,1.43,0.38h0.72v0.59h-9.06V45.9h0.75
			c0.88,0,1.51-0.26,1.91-0.78c0.25-0.34,0.38-1.16,0.38-2.46V28.67c0-1.1-0.07-1.83-0.2-2.19c-0.1-0.26-0.32-0.48-0.64-0.67
			c-0.46-0.26-0.94-0.38-1.44-0.38h-0.75v-0.59h9.06v0.59h-0.72c-0.49,0-0.97,0.12-1.43,0.37c-0.32,0.17-0.55,0.43-0.67,0.77
			c-0.12,0.34-0.19,1.04-0.19,2.11v6.63c0.21-0.2,0.93-0.88,2.15-2.03c3.1-2.89,4.98-4.83,5.62-5.79c0.28-0.43,0.42-0.8,0.42-1.12
			c0-0.24-0.11-0.46-0.33-0.65c-0.22-0.19-0.59-0.28-1.11-0.28h-0.48v-0.59h7.8v0.59c-0.46,0.01-0.88,0.07-1.25,0.19
			c-0.38,0.12-0.84,0.34-1.38,0.68c-0.54,0.34-1.21,0.88-2.01,1.62c-0.23,0.21-1.29,1.3-3.18,3.27L204.71,34.48z"/>
		<path class="st1" d="M226.24,24.35c2.62,0,4.89,1.07,6.81,3.2c1.92,2.13,2.88,4.8,2.88,7.99c0,3.29-0.97,6.02-2.9,8.19
			c-1.94,2.17-4.28,3.26-7.03,3.26c-2.78,0-5.11-1.06-7-3.18c-1.89-2.12-2.84-4.86-2.84-8.22c0-3.44,1.09-6.24,3.28-8.41
			C221.33,25.29,223.6,24.35,226.24,24.35z M225.96,25.51c-1.81,0-3.26,0.72-4.35,2.16c-1.36,1.79-2.04,4.41-2.04,7.85
			c0,3.53,0.71,6.25,2.11,8.16c1.08,1.45,2.51,2.17,4.29,2.17c1.89,0,3.46-0.79,4.7-2.38c1.24-1.59,1.85-4.09,1.85-7.5
			c0-3.7-0.68-6.47-2.04-8.28C229.39,26.23,227.88,25.51,225.96,25.51z"/>
		<path class="st1" d="M259.45,46.49h-6.24l-7.91-10.12c-0.59,0.02-1.06,0.03-1.43,0.03c-0.15,0-0.31,0-0.48-0.01
			c-0.17-0.01-0.35-0.01-0.54-0.02v6.29c0,1.36,0.16,2.21,0.48,2.54c0.44,0.47,1.09,0.7,1.96,0.7h0.91v0.59H236.2V45.9h0.88
			c0.99,0,1.7-0.3,2.12-0.89c0.24-0.33,0.36-1.11,0.36-2.35V28.67c0-1.36-0.16-2.21-0.48-2.54c-0.45-0.47-1.11-0.7-2-0.7h-0.88
			v-0.59h8.52c2.48,0,4.31,0.17,5.49,0.5c1.18,0.34,2.18,0.95,3,1.85c0.82,0.9,1.23,1.97,1.23,3.22c0,1.33-0.47,2.49-1.41,3.46
			c-0.94,0.98-2.39,1.67-4.35,2.08l4.82,6.21c1.1,1.43,2.05,2.37,2.84,2.84c0.79,0.47,1.83,0.77,3.1,0.89V46.49z M242.85,35.36
			c0.22,0,0.41,0,0.57,0.01c0.16,0.01,0.29,0.01,0.4,0.01c2.23,0,3.91-0.45,5.04-1.34c1.13-0.89,1.7-2.03,1.7-3.42
			c0-1.35-0.46-2.45-1.37-3.3c-0.91-0.85-2.12-1.27-3.63-1.27c-0.67,0-1.57,0.1-2.71,0.3V35.36z"/>
		<path class="st1" d="M265.48,26.02v8.56h4.91c1.27,0,2.12-0.19,2.55-0.56c0.57-0.49,0.89-1.35,0.95-2.59h0.61v7.54h-0.61
			c-0.15-1.05-0.31-1.73-0.46-2.03c-0.2-0.37-0.52-0.66-0.97-0.88c-0.45-0.21-1.14-0.32-2.07-0.32h-4.91v7.14
			c0,0.96,0.04,1.54,0.13,1.75c0.09,0.21,0.24,0.37,0.46,0.49c0.22,0.12,0.64,0.18,1.25,0.18h3.79c1.26,0,2.18-0.08,2.75-0.25
			c0.57-0.17,1.12-0.51,1.65-1.01c0.68-0.66,1.38-1.66,2.09-2.99h0.66l-1.92,5.43h-17.19V45.9h0.79c0.53,0,1.03-0.12,1.5-0.37
			c0.35-0.17,0.59-0.43,0.71-0.77c0.13-0.34,0.19-1.04,0.19-2.09V28.61c0-1.37-0.14-2.22-0.43-2.54c-0.39-0.43-1.05-0.64-1.97-0.64
			h-0.79v-0.59h17.19l0.25,4.74h-0.64c-0.23-1.14-0.49-1.92-0.76-2.35c-0.28-0.43-0.69-0.75-1.24-0.97
			c-0.44-0.16-1.21-0.24-2.32-0.24H265.48z"/>
		<path class="st1" d="M293.03,39.24h-8.23l-1.44,3.42c-0.35,0.84-0.53,1.47-0.53,1.88c0,0.33,0.15,0.62,0.46,0.87
			c0.31,0.25,0.98,0.41,2,0.49v0.59h-6.69V45.9c0.89-0.16,1.46-0.37,1.72-0.62c0.53-0.51,1.12-1.55,1.77-3.11l7.48-17.82h0.55
			l7.39,18.01c0.6,1.45,1.14,2.39,1.62,2.82c0.48,0.43,1.16,0.67,2.03,0.73v0.59h-8.38V45.9c0.85-0.04,1.42-0.19,1.72-0.43
			c0.3-0.24,0.45-0.54,0.45-0.89c0-0.47-0.21-1.21-0.63-2.22L293.03,39.24z M292.59,38.06l-3.6-8.75l-3.7,8.75H292.59z"/>
	</g>
	<rect x="106.85" y="53.3" class="st1" width="193.16" height="1.01"/>
	<path class="st2" d="M94.92,82.73c-3.55-0.56-6.27-3.5-6.27-7.03V31.04c0-3.53,2.72-6.48,6.27-7.03H75.25
		c-12.39,0-23.62,6.97-28.61,17.76l-1.53,3.3l0.5-3.58c1.42-10.11,6.91-15.11,11.05-17.48H29.34c3.55,0.56,6.27,3.5,6.27,7.03V75.7
		c0,3.53-2.72,6.48-6.27,7.03h27.32c-4.14-2.37-9.63-7.37-11.05-17.48l-0.5-3.58l1.53,3.3c4.99,10.79,16.22,17.76,28.61,17.76h0
		L94.92,82.73z M54.35,53.37c0-11.1,9.57-20.48,20.89-20.48h4.05v40.96h-4.05C63.92,73.85,54.35,64.47,54.35,53.37z"/>
</g>
<rect x="326" y="27" class="st0" width="1.69" height="60"/>
</svg>
